<?xml version="1.0" encoding="UTF-8" standalone="no"?>
<svg
   width="2957.678"
   height="3096.0774"
   viewBox="62 70 2957.678 3214.8885"
   version="1.1"
   id="svg1"
   xmlns="http://www.w3.org/2000/svg"
   xmlns:svg="http://www.w3.org/2000/svg">
  <defs
     id="defs1" />
  <path
     fill="#FFF"
     stroke="#FFF"
     fill-rule="evenodd"
     d="m 1556.1774,70.500347 c 36,1 73,3 109,4 6,0 28,2 33,6 1,1 16,0 26,2 27,4 78,12 108,20.000003 36,10 66,18 95,23 1,-1 30,12 33,10 2,2 38,16 41,14 19,10 42,15 57,25 6,4 39,14 39,14 24,15 53,23 79,40 27,17 54,34 79,48 17,10 38,17 53,30 6,3 13,5 19,8 21,11 43,28 61,40 4,2 9,3 13,5 36,30 73,47 104,75 16,15 34,32 55,47 15,10 34,30 45,41 1,1 4,8 6,5 6,9 63,70 68,71 0,0 13,16 14,15 12,15 24,30 36,45 1,0 1,-1 2,-1 15,26 34,50 54,71 7,8 9,19 16,28 30,40 52,83 80,125 13,21 17,46 32,68 26,39 34,82.99995 54,126.99995 49,110 72,247 92,375 6,42 16,88 12,129 1,10 1,20 2,30 -1,43 -1,85 -2,128 -10,69 -4,124 -19,183 -3,13 -2,31 -7,41 -3,17 -5,35 -8,52 -9,42 -18,84 -32,119 -7,23 -14,47 -21,70 0,0 -12,27 -10,31 -3,6 -22,48 -20,52 -24,40 -37,84 -59,122 -3,22 -5,45 -8,67 -16,47 -19,92 -42,143 -73,165 -208,318 -382,408 1,1 1,1 2,2 -20,3 -38,20 -55,28 -39,18 -80,32 -121,48 -20,8 -79,15 -91,26 1,8 1,15 2,23 -7,0 -14,-1 -17,1 -5,3 -18,22 -18,22 -15,9 -31,19 -51,28 -12,5 -33,4 -42,3 -35,0 -70,-1 -105,-1 -52,2 -113,2 -166,-5 -22,-3 -51,6 -73,-5 -31,-16 -52,-32 -72,-60 -15,-20 -12,-54 -12,-77 1,-57 2,-114 3,-171 -1,-35 1,-68 2,-106 1,-35 -2,-81 2,-118 4,-35 -3,-81 3,-116 0,-14 -1,-27 -1,-41 -1,-9 4,-84 5,-85 0,0 -2,-4 -2,-6 1,-12 1,-27 3,-44 2,-81 4,-163 6,-244 3,-94 5,-189 8,-283 5,-37 -5,-86 4,-108 0,-11 0,-22 0,-33 3,-36 -6,-86 15,-113 47,-60 94,-47 172,-56 23,-1 46,-3 69,-4 12,2 76,-9 79,-5 31,4 74,-15 100,-2 21,10 39,20 53,37 7,9 8,28 16,36 17,3 34,6 51,9 39,10 75,15 110,29 90,37 207,82 283,161 21,22 55,44 75,70 2,-3 2,-2 1,-5 14,-48 7,-96 11,-150 12,-176 -50,-449 -134,-597 -36,-62 -63,-118.99995 -104,-173.99995 -6,-8 -29,-45 -34,-46 -1,1 -1,-7 -4,-4 -29,-54 -83,-92 -123,-134 -7,-7 -20,-24 -30,-30 -4,0 -9,-1 -13,-1 -18,5 -47,1 -65,-4 -41,-10 -93,-14 -136,-34 -57,-26 -103,-59 -158,-85 -32,-16 -60,-18 -94,-31 -8,-3 -84,-25 -90,-21 -12,-8 -35,-6 -55,-9 -64,-9 -135,-11 -204,-4 -48,5 -100,10 -144,23 -50,15 -110,23 -152,46 -17,6 -33,11 -50,17 -22,14 -49,22 -73,33 -36,20 -72.99997,39 -108.99997,59 -114,62 -206,153 -298,238 -47,43 -97,113.99995 -133,168.99995 -20,30 -30,65 -53,91 -23,25 -42,53 -67,77 -27,26 -62,43 -78,75 -19,38 -27,84 -38,123 -4,13 -17,41 -14,52 -6,21 -16,48 -14,68 -2,8 -3,15 -5,23 -3,25 -5,50 -8,75 -2,11 -3,21 -5,32 -1,36 -1,72 -2,108 8,65 2,126 18,190 2,12 3,23 5,35 6,26 13,52 19,78 8,17 10,38 18,56 13,31 25,62 38,93 1,0 1,0 2,0 5,-42 27,-74 43,-110 46,-101 124,-191 213,-253 -1,-28 8,-57 24,-74 16,-18 41,-21 63,-34 48,-28 105,-44 155,-69 40,-20 96,-32 124,1 18,21 20,52 31,82 27.99997,80 45.99997,165 73.99997,248 7,21 14,51 24,71 10,20 9,46 19,64 10,18 8,43 18,60 3,12 5,23 8,35 10,30 18,68 31,96 5,19 9,38 14,57 15,42 25,91 42,133 5,20 10,39 15,59 23,74 45,147 68,221 9,33 18,65 27,98 9,17 8,42 18,60 38,71 33,167 -43,192 -19,3 -37,7 -56,10 -28,10 -73,22 -104,20 -20,-1 -42,12 -61,11 -24,-1 -49,14 -74.99997,5 -23,-8 -43,-22 -57,-39 -5,-7 -10,-22 -18,-25 -7,-1 -14,-1 -21,-2 -31,-13 -66,-16 -96,-30 -54,-25 -127,-63 -167,-101 -9,-8 -17,-19 -27,-26 -85,-66 -156,-163 -214,-256 -14,-23 -28,-50 -39,-74 -4,-10 -7,-20 -11,-30 -19,-28 -46,-53 -66,-81 -62,-84 -121,-175 -166,-275 -118.9999967,-268 -140.999997,-614 -76.999997,-886 22,-92 47,-178 85.999997,-259 18,-37 25,-77 51,-106 5,-6 10,-26 17,-37 15,-24 24,-42 40,-64.99995 19,-27 30,-59 47,-87 35,-58 75,-118 118,-170 66,-79 132,-164 211,-230 25,-21 46,-49 71,-69 73,-58 147,-113 224,-167 64,-45 149.99997,-80 224.99997,-114 75,-34 152,-44 222,-63.000003 34,-9 63,-7 87,-13 40,-2 79,-4 119,-6 z m 471,1581.999953 c -11,5 -26,1 -37,2 -34,3 -79,1 -123,8 -19,1 -37,1 -56,2 -4,201 -7,401 -11,602 -1,68 -2,137 -3,205 4,75 -8,155 -3,239 -1,29 -2,59 -3,88 0,86 0,172 0,258 3,0 6,1 9,1 81,2 161,4 242,6 0,0 0,-1 0,-1 -5,-20 0,-38 -1,-57 -4,-73 3,-143 -3,-217 0,-108 -1,-216 -1,-324 -1,-35 -1,-69 -2,-104 1,-87 1,-175 2,-262 1,-149 2,-297 3,-446 -1,0 -2,1 -3,1 -3,0 -7,-1 -10,-1 z"
     id="path1" />
</svg>
