<?xml version="1.0" encoding="UTF-8" standalone="no"?>
<!-- Uploaded to: SVG Repo, www.svgrepo.com, Generator: SVG Repo Mixer Tools -->

<svg
   fill="#FFF"
   width="551.59094"
   height="551.591"
   viewBox="0 0 11.031819 11.03182"
   version="1.1"
   id="svg1"
   xmlns="http://www.w3.org/2000/svg"
   xmlns:svg="http://www.w3.org/2000/svg">
  <defs
     id="defs1" />
  <path
     d="M 9.4183782,5.2113212 A 2.8251547,1.9973992 0 0 0 7.5349413,4.7452614 H 3.1182829 a 1.4973319,1.0586216 0 0 1 -1.5350008,-1.0719376 1.8834365,1.3315995 0 0 1 0,-0.1664499 1.4973319,1.0586216 0 0 1 1.5350008,-0.8855137 H 7.4690212 A 1.4973319,1.0586216 0 0 1 8.9475188,3.5068739 H 10.360096 A 2.9004921,2.0506632 0 0 0 7.4690212,1.6226606 H 5.9811063 V 0.09132118 H 4.8039585 V 1.6226606 H 3.1182829 a 2.9004921,2.0506632 0 0 0 -2.89107489,1.8842133 1.9681911,1.3915215 0 0 0 0,0.1664499 2.891075,2.0440052 0 0 0 2.89107489,2.0440052 h 4.4637445 a 1.4973319,1.0586216 0 0 1 1.5350006,1.0586216 1.7515959,1.2383875 0 0 1 0,0.2263719 1.4973319,1.0586216 0 0 1 -1.4596634,0.8255917 H 3.2312891 A 1.4973319,1.0586216 0 0 1 1.7716258,7.0023225 H 0.34963131 A 2.9004921,2.0506632 0 0 0 3.2312891,8.8199558 H 4.8039585 V 10.331321 H 5.9811063 V 8.8199558 H 7.5820274 A 2.9004921,2.0506632 0 0 0 10.463684,7.0023225 V 6.7759506 A 2.8816578,2.0373472 0 0 0 9.4183782,5.2113212 Z"
     id="path2"
     style="fill:#FFF"
     transform="translate(0.1722253,0.30458882)" />
  <path
     d="M 9.6202244,4.8707293 C 9.3491418,4.7100766 9.0188106,4.5682339 8.6318987,4.4724918 8.3021453,4.3908938 7.9291108,4.3425277 7.5281481,4.3494097 6.1898527,4.3493514 4.7112939,4.3493514 3.1182829,4.3493514 2.9400817,4.3524694 2.7763213,4.3305718 2.6277308,4.288003 2.4832664,4.2466163 2.3569246,4.1867593 2.2549472,4.1155454 2.1554541,4.0460664 2.0841982,3.969386 2.0395563,3.8941761 1.9969766,3.8224404 1.9778356,3.7512875 1.9791262,3.6805454 a 0.39591146,0.39590886 42.99191 0 0 -0.00148,-0.042152 c -0.00194,-0.02189 -0.00262,-0.044436 -0.0018,-0.067594 0.017217,-0.05633 0.048473,-0.1151557 0.09766,-0.1744036 0.05638,-0.067912 0.13554,-0.1351762 0.2383497,-0.1944852 0.2023467,-0.1167301 0.481333,-0.1933477 0.7956406,-0.1847874 a 0.39858126,0.39329447 45.397671 0 0 0.010781,1.468e-4 c 1.4185952,0 2.8710566,0 4.3507383,0 0.2993756,-1.865e-4 0.5679379,0.076148 0.7657361,0.1946149 0.096981,0.058085 0.1726386,0.123671 0.2270028,0.1905697 0.053584,0.065938 0.085525,0.1317652 0.1003001,0.1947873 a 0.39590983,0.39591013 83.402849 0 0 0.3854587,0.3055418 c 0.4654911,0 0.9369466,0 1.4125771,0 A 0.39591265,0.39591003 86.714547 0 0 10.753405,3.4615662 C 10.714493,3.1237584 10.586092,2.8112609 10.393296,2.5361504 10.201868,2.2629924 9.9472429,2.0267733 9.6512482,1.8338633 9.3560357,1.6414636 9.0161875,1.4897995 8.6480394,1.3862303 8.2807214,1.282895 7.8827786,1.2267356 7.4690111,1.2267506 c -0.3629208,0 -0.7271518,0 -1.0919948,0 0,-0.37858987 0,-0.75730676 0,-1.13542795 a 0.39590999,0.39591146 0 0 0 -0.39591,-0.39591146 c -0.3936824,0 -0.7865248,0 -1.1771467,0 A 0.39591108,0.39591009 0 0 0 4.4080485,0.09132128 c 0,0.38034564 0,0.75907308 0,1.13542932 -0.4337867,0 -0.8640348,0 -1.2897656,0 C 2.7035914,1.2267351 2.3056964,1.2831443 1.9392686,1.3862291 1.5702232,1.4900508 1.2305492,1.6419318 0.93605589,1.8338632 0.63928528,2.0272789 0.38497194,2.2636546 0.19400988,2.5361473 6.7388612e-4,2.8120274 -0.12728721,3.1246022 -0.16610137,3.4615699 a 0.39592267,0.39589806 50.70916 0 0 -0.001187,0.011872 c -0.006226,0.073471 -0.006439,0.1456971 -0.001343,0.2162064 0.003103,0.356484 0.10772179,0.6890929 0.28327986,0.9825477 0.17997681,0.3008398 0.4335377,0.5595814 0.73077846,0.7697322 C 1.1430396,5.6523418 1.4935105,5.8205835 1.8795166,5.9360141 2.2603085,6.049885 2.6786696,6.113239 3.1182829,6.113239 c 1.4532403,0 2.9434948,0 4.4637442,0 0.1784959,-0.00311 0.3408691,0.018919 0.4868521,0.060349 0.1450048,0.041152 0.2706171,0.1005132 0.3715862,0.1701471 0.1004221,0.069257 0.1719216,0.1454227 0.2170411,0.2195134 0.043873,0.072043 0.063643,0.1429498 0.063612,0.2125252 a 0.39591011,0.39590991 41.314511 0 0 0.00329,0.051146 c 0.00378,0.029145 0.00494,0.058563 0.00333,0.088214 C 8.7066665,6.9663545 8.674052,7.0185739 8.6272305,7.0709396 8.5702049,7.1347176 8.4934105,7.1967364 8.3968877,7.25133 8.2038063,7.3605376 7.9456429,7.431876 7.6571888,7.4320042 c -1.4685668,0 -2.945654,0 -4.4258997,0 C 2.9441082,7.4318763 2.6857293,7.3610364 2.4917661,7.25133 2.3954277,7.1968406 2.3185739,7.1348575 2.2614233,7.0709396 2.204558,7.0073407 2.1685425,6.9438257 2.1487899,6.8819399 A 0.39590998,0.39590999 81.149026 0 0 1.7716258,6.6064125 c -0.475195,0 -0.94974635,0 -1.42199445,0 a 0.39591253,0.39591001 85.405151 0 0 -0.39082811,0.4591408 c 0.05321066,0.3289094 0.1906813,0.6302879 0.3867449,0.8939306 0.19612745,0.2637276 0.45116878,0.4903896 0.74363676,0.6748671 0.5869858,0.3702469 1.3409578,0.581505 2.1420953,0.5815148 0.3951258,0 0.7876548,0 1.1767683,0 0,0.3760845 0,0.7481836 0,1.1154552 a 0.39590998,0.39591001 0 0 0 0.39591,0.39591 c 0.4003468,0 0.7933289,0 1.177148,0 a 0.39590982,0.39591021 0 0 0 0.3959098,-0.39591 c 0,-0.3791324 0,-0.7513012 0,-1.1154552 0.4135951,0 0.8157715,0 1.2050109,0 C 8.4065235,9.2158563 9.1553041,8.9931437 9.7241274,8.6343529 10.021475,8.4467977 10.274666,8.2191427 10.467765,7.9594867 10.667438,7.6909921 10.802175,7.389067 10.854513,7.0655496 a 0.39590943,0.39591076 49.594669 0 0 0.0051,-0.063227 c 0,-0.081648 0,-0.1574306 0,-0.2263719 C 10.858027,6.3622983 10.719027,5.9939571 10.516855,5.6913426 10.280303,5.3372682 9.9548188,5.0663316 9.6181937,4.869534 Z M 9.2185627,5.5531084 c 0.2591961,0.1515311 0.4850269,0.3463028 0.6398894,0.5781033 0.1309008,0.1959343 0.2084469,0.4148665 0.2093249,0.6462399 -3e-6,0.057696 -3e-6,0.1219363 -3e-6,0.1906035 C 10.034387,7.1445363 9.9569073,7.319529 9.832385,7.486971 9.7045047,7.6589285 9.5270455,7.8224872 9.3016933,7.9646303 8.868587,8.2378163 8.2683706,8.4240379 7.5820228,8.4240458 c -0.5123732,0 -1.047168,0 -1.6009167,0 A 0.39590974,0.39591026 0 0 0 5.5851963,8.8199561 c 0,0.3635318 0,0.7357166 0,1.1154549 0.1394108,0 -0.1211807,0 -0.3853278,0 0,-0.3676386 0,-0.739731 0,-1.1154553 A 0.39591011,0.39590987 0 0 0 4.8039584,8.4240458 c -0.5182468,0 -1.043134,0 -1.5726692,0 C 2.5637657,8.4240377 1.9593648,8.2470484 1.5116222,7.9646305 1.289742,7.824677 1.1109649,7.6618254 0.9809304,7.4869712 0.95915779,7.457694 0.93876407,7.4281053 0.91975519,7.3982325 c -0.18078804,0 0.21011321,0 0.60165001,0 0.043859,0.071461 0.094266,0.1384435 0.1497419,0.2004881 0.1216578,0.1360635 0.268917,0.2502647 0.4307962,0.3418242 0.3228166,0.1825865 0.7173538,0.2830959 1.1291674,0.2832793 1.4804241,10e-8 2.9575113,10e-8 4.4262498,10e-8 0.4136583,-1.838e-4 0.807869,-0.1014484 1.12935,-0.2832793 C 8.9489352,7.8487899 9.0960833,7.734522 9.2175067,7.5987207 9.3397351,7.4620191 9.4370811,7.3016364 9.4941921,7.1227051 a 0.39591787,0.39590451 57.550248 0 0 0.015451,-0.069414 C 9.5228636,6.951455 9.5236071,6.8499381 9.5126602,6.7501709 9.5078683,6.5310154 9.4413672,6.3280514 9.3337933,6.1514046 9.2220096,5.9678451 9.0670262,5.8139802 8.8900078,5.6918985 8.7111639,5.5685578 8.5052324,5.474334 8.2850584,5.4118493 8.06249,5.348685 7.8224396,5.3170789 7.5749845,5.3214817 6.0617777,5.321419 4.5715232,5.321419 3.1182834,5.321419 2.7542989,5.321419 2.4124168,5.2689054 2.1063781,5.1773885 1.7955762,5.0844469 1.5241729,4.952074 1.3025411,4.7953791 1.0805377,4.6384215 0.9089042,4.4574949 0.79415548,4.2656869 0.68188728,4.0780245 0.623118,3.8788157 0.623118,3.6733238 a 0.39591243,0.39590802 42.578312 0 0 -0.001414,-0.033432 C 0.61910793,3.6092592 0.6188508,3.5779228 0.62125248,3.5459535 0.6443324,3.355226 0.71806558,3.1680646 0.84245117,2.990573 0.96765307,2.8119166 1.1442747,2.6433017 1.3683971,2.4972334 1.5903973,2.3525482 1.8555645,2.2323343 2.1536992,2.1484617 2.4492689,2.0653109 2.7749519,2.0185578 3.1182681,2.0185706 c 0.5549533,0 1.1175672,0 1.6856887,0 a 0.39591165,0.39590999 0 0 0 0.3959117,-0.39591 c 0,-0.3760738 0,-0.75480425 0,-1.13542943 -0.1363421,0 0.1242052,0 0.3853278,0 0,0.37837379 0,0.75709103 0,1.13542943 a 0.39590999,0.39590999 0 0 0 0.39591,0.39591 c 0.4972239,0 0.9937744,0 1.4879149,0 0.3425661,-1.25e-5 0.6682883,0.046536 0.9645802,0.1298901 0.2974381,0.083677 0.5627418,0.2037207 0.785303,0.3487711 0.2235766,0.1457125 0.4004185,0.3142167 0.5259484,0.4933412 0.027786,0.039649 0.053058,0.079801 0.075811,0.1203909 0.1550044,0 -0.2266963,0 -0.6047248,0 C 9.1757952,3.0370679 9.128727,2.9676507 9.0762635,2.9030908 8.9560558,2.7551674 8.806657,2.6314355 8.6416098,2.5325841 8.3085705,2.3331175 7.8964797,2.2251837 7.4687744,2.2254503 c -1.4776399,-10e-8 -2.9283723,-10e-8 -4.3453286,-10e-8 C 2.6757318,2.2142449 2.2527128,2.3219032 1.9161926,2.5160354 1.7428226,2.6160494 1.588051,2.7415289 1.464283,2.8906103 1.3381167,3.0425809 1.2437207,3.2198191 1.1977303,3.4169041 a 0.3958974,0.39592668 54.096295 0 0 -0.00881,0.055039 c -0.00658,0.074271 -0.00673,0.1463367 -0.00167,0.2156137 3.98e-5,0.2246709 0.065182,0.4318208 0.1714066,0.6107805 0.1114748,0.1878057 0.2672084,0.3436786 0.4429453,0.466401 0.1811043,0.1264707 0.3886965,0.2216185 0.6080636,0.2844636 0.226656,0.064933 0.4688245,0.096313 0.7156895,0.091906 1.5859448,6.31e-5 3.0645036,6.31e-5 4.4095922,6.31e-5 0.3361404,-0.00571 0.6406941,0.03412 0.9067568,0.099957 0.3119887,0.077202 0.5703774,0.1896165 0.7748339,0.3107844 z"
     id="path1"
     style="fill-rule:nonzero;stroke:none;stroke-width:0.79182;stroke-dasharray:none"
     transform="translate(0.1722253,0.30458882)" />
</svg>
