<?xml version="1.0" encoding="utf-8"?>
<svg viewBox="15.9996 32.0002 480.0012 448.0001" xmlns="http://www.w3.org/2000/svg">
  <path d="M 261.6 477.781 C 258.507 480.74 253.633 480.74 250.54 477.781 L 66.44 301.911 C 64.86 300.4 63.968 298.307 63.97 296.121 L 63.94 131.061 C 63.94 113.388 78.267 99.061 95.94 99.061 L 192.04 99.061 C 200.877 99.061 208.04 106.224 208.04 115.061 L 208.04 251.061 C 208.04 255.479 211.622 259.061 216.04 259.061 L 296.04 259.061 C 300.459 259.061 304.04 255.479 304.04 251.061 L 304.04 115.061 C 304.04 106.224 311.204 99.061 320.04 99.061 L 416.1 99.061 C 433.773 99.061 448.1 113.388 448.1 131.061 L 448.1 296.121 C 448.103 298.307 447.21 300.4 445.63 301.911 L 261.6 477.781 Z" style="transform-origin: 256.02px 289.531px;" transform="matrix(-1, 0, 0, -1, 0, 0)"/>
  <path d="M 490.91 59.874 L 443.858 104.579 L 443.858 240.024 C 443.858 248.861 436.695 256.024 427.858 256.024 L 352.11 256.024 C 343.273 256.024 336.11 248.861 336.11 240.024 L 336.11 208.024 L 278.19 263.404 C 272.77 268.884 264.71 272.024 256 272.024 C 247.32 272.024 239.28 268.884 233.86 263.394 L 21.16 59.894 C 14.94 53.894 14.16 44.024 19.82 37.524 C 25.818 30.6 36.395 30.116 43 36.464 L 250.5 234.744 C 253.593 237.703 258.467 237.703 261.56 234.744 L 469.08 36.464 C 475.445 30.36 485.548 30.557 491.67 36.904 C 497.81 43.264 497.3 53.764 490.91 59.874 Z" style="transform-origin: 256px 152.012px;" transform="matrix(-1, 0, 0, -1, 0, 0.000030517578)"/>
</svg>