<?xml version="1.0" encoding="utf-8"?>
<svg viewBox="84.078 0 427.9234 490.7393" xmlns="http://www.w3.org/2000/svg">
  <defs>
    <style type="text/css" id="style1">
	.st0{fill:#000000;}
</style>
  </defs>
  <path class="st0" d="M 164.128 239.484 C 164.111 228.386 164.111 218.725 165.474 209.584 L 157.487 218.75 C 143.486 234.884 108.108 245.313 78.458 242.051 C 48.792 238.789 36.112 223.065 50.113 206.923 L 155.513 96.631 C 157.562 94.481 158.139 91.32 156.969 88.577 C 155.806 85.85 153.113 84.077 150.144 84.077 L 133.166 84.077 C 128.198 84.077 123.447 86.059 119.96 89.597 L 28.527 182.252 C 9.767 201.89 10.637 212.796 10.637 243.341 C 10.637 265.153 10.637 460.323 10.637 460.323 C 10.637 486.519 43.557 508.147 73.215 511.401 C 102.865 514.671 143.487 504.233 157.488 488.099 L 166.805 477.267 C 165.132 471.865 164.129 466.227 164.129 460.322 L 164.129 239.484 L 164.128 239.484 Z" id="path1" transform="matrix(0, -1, 1, 0, 0.001007080078125, 501.3699951171875)"/>
  <path class="st0" d="M 493.952 84.078 L 475.577 84.078 C 470.217 84.078 465.123 86.402 461.593 90.434 L 349.753 218.75 C 335.753 234.884 300.374 245.313 270.733 242.051 C 241.066 238.789 228.387 223.065 242.388 206.923 L 347.788 96.631 C 349.829 94.481 350.414 91.32 349.244 88.577 C 348.072 85.85 345.388 84.077 342.419 84.077 L 325.44 84.077 C 320.472 84.077 315.713 86.059 312.234 89.597 L 220.802 182.251 C 202.042 201.889 202.912 212.795 202.912 243.34 C 202.912 265.152 202.912 460.322 202.912 460.322 C 202.912 486.518 235.832 508.146 265.481 511.4 C 295.139 514.67 335.753 504.232 349.753 488.098 L 487.896 327.64 C 496.586 317.537 501.37 304.656 501.37 291.325 L 501.37 91.496 C 501.37 87.406 498.051 84.078 493.952 84.078 Z" id="path2" transform="matrix(0, -1, 1, 0, 0.001007080078125, 501.3699951171875)"/>
</svg>