<?xml version="1.0" encoding="UTF-8" standalone="no"?>
<!-- Uploaded to: SVG Repo, www.svgrepo.com, Generator: SVG Repo Mixer Tools -->

<svg
   fill="#000000"
   width="750.00183"
   height="694.06836"
   viewBox="0 0 480.00117 444.20375"
   version="1.1"
   id="svg2"
   xmlns="http://www.w3.org/2000/svg"
   xmlns:svg="http://www.w3.org/2000/svg">
  <defs
     id="defs2" />
  <title
     id="title1">ionicons-v5-i</title>
  <path
     d="m 245.3608,65.483751 a 8,8 0 0 0 -11.06,0 l -184.1,175.869999 a 8,8 0 0 0 -2.47,5.79 l -0.03,165.06 a 32,32 0 0 0 32,32 h 96.1 a 16,16 0 0 0 16,-16 v -136 a 8,8 0 0 1 8,-8 h 80 a 8,8 0 0 1 8,8 v 136 a 16,16 0 0 0 16,16 h 96.06 a 32,32 0 0 0 32,-32 v -165.06 a 8,8 0 0 0 -2.47,-5.79 z"
     id="path1" />
  <path
     id="path1-7"
     style="display:inline;stroke-width:1.31622"
     d="m 240.0008,6.1035156e-7 c -8.70999,0 -16.77001,3.14000498964844 -22.19,8.61999998964844 l -57.92,55.3800004 v -32 c 0,-8.836547 -7.16345,-16 -16,-16 h -3.51125 c -0.95471,-0.11145 -1.92125,-0.18875 -2.91,-0.18875 H 70.6108 c -12.308363,-2e-6 -22.28625,8.909479 -22.28625,19.9 V 170.77125 L 48.4983,170.6225 5.0908003,212.15 c -6.389994,6.10999 -6.899994,16.61001 -0.76,22.97 6.1221387,6.34675 16.2253587,6.54354 22.5899997,0.44 l 207.52,-198.279999 c 3.09302,-2.958763 7.96698,-2.958763 11.06,0 L 453.0008,235.56 c 6.60527,6.34787 17.18165,5.86422 23.18,-1.06 5.65999,-6.49999 4.87999,-16.37001 -1.34,-22.37 L 262.1408,8.6300006 C 256.72081,3.1400056 248.68079,6.1035154e-7 240.0008,6.1035156e-7 Z" />
</svg>
