<svg xmlns="http://www.w3.org/2000/svg" viewBox="0 0 512 512"><path fill-rule="evenodd" stroke="#000" d="M1556 70c36 1 73 4 109 4 6 0 28 2 33 6 1 2 16 0 26 3 27 4 78 12 108 19 36 11 66 19 95 24 1-2 30 11 33 10 2 1 38 16 41 13 19 10 42 16 57 26 6 4 39 13 39 13 24 16 53 23 79 40 27 17 54 34 79 48 17 11 38 17 53 30 6 4 13 5 19 9 21 10 43 27 61 39 4 3 9 4 13 5 36 30 73 48 104 75 16 16 34 33 55 47 15 10 34 31 45 41a668 668 0 0 0 88 91l36 46 2-2c15 26 34 51 54 72 7 7 9 19 16 28 30 39 52 83 80 125 13 20 17 45 32 67 26 39 34 83 54 127 49 110 72 248 92 376 6 42 16 87 12 128l2 30-2 129c-10 68-4 124-19 182-3 13-2 31-7 42l-8 52c-9 41-18 84-32 119l-21 70s-12 26-10 31c-3 5-22 48-20 52-24 40-37 83-59 122l-8 66c-16 48-19 92-42 144a856 856 0 0 1-382 407l2 3c-20 2-38 19-55 28-39 17-80 31-121 48-20 8-79 14-91 26l2 22-17 1c-5 3-18 22-18 22-15 9-31 20-51 29-12 5-33 4-42 2l-105-1c-52 3-113 3-166-5-22-3-51 6-73-4-31-17-52-32-72-61-15-19-12-53-12-76l3-171c-1-35 1-68 2-107 1-35-2-80 2-118 4-35-3-80 3-115l-1-42c-1-9 4-84 5-84l-2-6 3-44 6-244 8-283c5-37-5-87 4-109v-32c3-36-6-87 15-113 47-61 94-48 172-57 23 0 46-3 69-4 12 3 76-9 79-5 31 5 74-14 100-1 21 10 39 19 53 36 7 9 8 28 16 36l51 9c39 11 75 16 110 30 90 36 207 82 283 161 21 22 55 44 75 70 2-4 2-3 1-5 14-48 7-96 11-151 12-176-50-448-134-596-36-62-63-119-104-175-6-8-29-44-34-45-1 1-1-7-4-4-29-55-83-92-123-134-7-8-20-25-30-31h-13c-18 4-47 0-65-4-41-10-93-14-136-35-57-26-103-58-158-84-32-17-60-18-94-31-8-3-84-25-90-21-12-9-35-6-55-9-64-9-135-12-204-4-48 4-100 9-144 22-50 16-110 23-152 47-17 5-33 10-50 17-22 14-49 22-73 32-36 21-73 39-109 60-114 62-206 153-298 237-47 44-97 114-133 170-20 30-30 65-53 90s-42 54-67 77c-27 26-62 44-78 75-19 39-27 84-38 123-4 13-17 42-14 52-6 21-16 48-14 69l-5 22-8 75-5 33-2 107c8 65 2 126 18 191l5 35 19 78c8 16 10 37 18 55l38 94h2c5-42 27-74 43-111a639 639 0 0 1 213-252c-1-29 8-57 24-74 16-18 41-21 63-34 48-29 105-44 155-70 40-19 96-31 124 1 18 21 20 52 31 82 28 80 46 166 74 249 7 21 14 50 24 70 10 21 9 47 19 65s8 43 18 59l8 35c10 30 18 69 31 96l14 57c15 43 25 91 42 134l15 58 68 222 27 97c9 17 8 43 18 61 38 70 33 166-43 192l-56 9c-28 10-73 22-104 21-20-2-42 11-61 10-24 0-49 14-75 5-23-7-43-22-57-39-5-6-10-22-18-24l-21-3c-31-13-66-15-96-30-54-24-127-63-167-101-9-8-17-18-27-26a983 983 0 0 1-253-329l-11-31c-19-27-46-52-66-80-62-85-121-175-166-275a1478 1478 0 0 1 9-1145c18-38 25-78 51-106 5-7 10-26 17-38 15-23 24-41 40-65 19-27 30-58 47-87 35-58 75-118 118-170 66-79 132-163 211-229 25-22 46-49 71-70 73-57 147-113 224-166 64-45 150-80 225-114 75-35 152-44 222-64 34-9 63-6 87-13l119-6Zm471 1583c-11 4-26 0-37 1-34 3-79 2-123 8l-56 3-11 601-3 205c4 75-8 156-3 240l-3 88v258h9l242 7v-2c-5-19 0-37-1-57-4-72 3-142-3-216l-1-324-2-104 2-262 3-446h-13Zm0 0" transform="matrix(.1667 0 0 .1593 -1 -11)"/></svg>